<svg xmlns="http://www.w3.org/2000/svg" xmlns:xlink="http://www.w3.org/1999/xlink" width="31" height="31" viewBox="0 0 31 31"><defs><path id="9bwwa" d="M851.02 9229.01a14 14 0 1 1-28 0 14 14 0 0 1 28 0zm-10.85 6.72a4.3 4.3 0 0 1-1.34.32c-.47 0-.8-.08-.98-.23-.2-.16-.29-.45-.29-.87a9.17 9.17 0 0 1 .28-1.62l.9-3.17c.1-.3.15-.61.19-.96l.05-.73c0-.67-.24-1.21-.7-1.63a2.93 2.93 0 0 0-2.01-.63c-.49 0-1 .09-1.53.26-.54.17-1.1.37-1.7.62l-.24.98.63-.21c.25-.08.48-.1.72-.1.47 0 .8.07.96.23.17.16.25.44.25.85 0 .23-.02.48-.08.75-.05.27-.12.56-.2.87l-.9 3.18a5.94 5.94 0 0 0-.23 1.68c0 .66.24 1.2.72 1.62.49.43 1.17.64 2.04.64.57 0 1.07-.07 1.5-.22l1.72-.65zm.23-13.33c0-.55-.21-1.02-.63-1.42-.42-.39-.92-.59-1.51-.59s-1.1.2-1.52.6c-.42.39-.63.86-.63 1.41 0 .55.21 1.03.63 1.42.42.38.93.58 1.52.58s1.1-.2 1.51-.58c.42-.4.63-.86.63-1.42z"/><linearGradient id="9bwwb" x1="837.02" x2="837.01" y1="9243.01" y2="9215.01" gradientUnits="userSpaceOnUse"><stop offset="0" stop-opacity=".4"/><stop offset="1" stop-color="#fff" stop-opacity=".4"/></linearGradient></defs><g><g transform="translate(-822 -9214)"><use fill="#f0441f" xlink:href="#9bwwa"/><use fill="url(#9bwwb)" xlink:href="#9bwwa"/></g></g></svg>