<svg xmlns="http://www.w3.org/2000/svg" xmlns:xlink="http://www.w3.org/1999/xlink" width="20" height="22" viewBox="0 0 20 22"><defs><path id="vowga" d="M1642.49 391.37c.35.45.51.94.45 1.43s-.33.94-.79 1.3l-.59.44c-.28.21-.55.4-.8.63l-.01.02c-.7.58-1.53.81-2.47.7l-.25-.04c-1.38-.25-2.56-.91-3.44-1.45a18.95 18.95 0 0 1-5.73-5.6 16.87 16.87 0 0 1-2.47-5.41 6.79 6.79 0 0 1-.15-3c.16-.7.53-1.28 1.11-1.72l1.55-1.2h.01c.45-.33.96-.47 1.45-.41.5.06.94.31 1.28.74.24.27.46.55.67.82l.33.43.97 1.2c.75.93.61 2.01-.34 2.74l-.38.3-1.06.78c.18.56.46 1.13.89 1.81a13.78 13.78 0 0 0 2.96 3.36c.1.08.23.17.37.25l.3.2 1.43-1.09a2 2 0 0 1 1.46-.44c.5.06.95.33 1.3.77zm-.88.66l-1.95-2.44-.01-.01a.83.83 0 0 0-.55-.36c-.25-.03-.5.1-.65.22l-1.55 1.19c-.08.05-.32.24-.65.2a.88.88 0 0 1-.4-.15l-.04-.03c-.1-.1-.24-.18-.37-.26-.15-.1-.31-.2-.47-.33a14.7 14.7 0 0 1-3.2-3.61v-.01a8.54 8.54 0 0 1-1.05-2.27c-.05-.24-.07-.58.32-.87l.03-.02c.39-.27.75-.54 1.13-.84l.4-.3c.48-.37.53-.75.15-1.22l-.97-1.21-.34-.43c-.21-.28-.42-.54-.64-.8a.88.88 0 0 0-.57-.36.96.96 0 0 0-.65.21l-1.55 1.18c-.37.29-.6.65-.7 1.1-.16.72-.12 1.5.14 2.53.4 1.69 1.14 3.3 2.32 5.08a17.9 17.9 0 0 0 5.4 5.28c.8.5 1.85 1.08 3.05 1.3l.18.03a2 2 0 0 0 1.6-.45c.3-.26.6-.48.89-.7l.55-.41c.47-.37.52-.8.15-1.24z"/></defs><g><g transform="translate(-1625 -375)"><use fill="#229980" xlink:href="#vowga"/></g></g></svg>