<svg xmlns="http://www.w3.org/2000/svg" xmlns:xlink="http://www.w3.org/1999/xlink" width="21" height="22" viewBox="0 0 21 22"><defs><path id="rg8ra" d="M1629.52 308.99c-1.6-1.9-1.33-4.1-1.3-4.4.1-2.35 1.16-3.47 2.03-3.99.86-.52 1.76-.6 2.22-.6h.07c.84.02 1.59.23 2.23.62.86.52 1.9 1.63 2 3.96.03.31.3 2.5-1.3 4.4a3.71 3.71 0 0 1-2.91 1.34h-.13a3.7 3.7 0 0 1-2.91-1.33zm.83-.78c.51.61 1.21.92 2.12.93h.04c.92 0 1.61-.32 2.13-.93 1.32-1.57 1.03-3.49 1.03-3.52v-.03c-.14-2.97-2.03-3.45-3.15-3.47h-.05c-.9 0-3 .33-3.14 3.47v.03a4.8 4.8 0 0 0 1.02 3.52zm10.44 8.43a.56.56 0 0 1-.21.27c-.13.08-3.1 2.09-8.07 2.09-4.98 0-7.95-2-8.08-2.1a.54.54 0 0 1-.21-.26 7.08 7.08 0 0 1-.21-1.99v-.01-.1c.03-.87.08-1.84 1.88-2.49l.04-.01c1.87-.5 3.41-1.64 3.43-1.65.25-.2.6-.13.78.14.17.26.11.64-.14.82-.07.05-1.72 1.26-3.78 1.82-.96.37-1.07.4-1.1 1.4v.1c0 .4.02 1 .09 1.36.67.4 3.31 1.8 7.3 1.8 3.99 0 6.61-1.4 7.28-1.8.07-.35.1-.96.09-1.35v-.1c-.03-1-.14-1.04-1.1-1.4a12.63 12.63 0 0 1-3.78-1.82.61.61 0 0 1-.14-.83.54.54 0 0 1 .78-.14c.02.01 1.57 1.15 3.43 1.65l.04.02c1.8.64 1.85 1.6 1.88 2.48V314.66c0 .23.01 1.4-.2 1.98z"/></defs><g><g transform="translate(-1622 -298)"><use fill="#229980" xlink:href="#rg8ra"/></g></g></svg>