<svg xmlns="http://www.w3.org/2000/svg" xmlns:xlink="http://www.w3.org/1999/xlink" width="2712" height="1505" viewBox="0 0 2712 1505"><defs><path id="f5sxa" d="M814 5257h-1v-21h1z"/><path id="f5sxb" d="M735 5434s48.36-108 113-108c57.74 0 46.45-90.89 93.74-80.79 34.83 7.44 21.38 132.43 66.32 141.47 21.7 4.36 45.1-89.6 73.97-89.6 38.85 0 40.3 45.72 82.64 45.72 36.56 0 43.91-143.84 88.08-143.84 13.35 0 47.13 42.74 84.03 34.11 54.44-12.72 58.69-48.07 128.22-48.07"/><path id="f5sxc" d="M735 5436s-65-332 730-332"/><path id="f5sxd" d="M735 5436s524-3 730-302"/><path id="f5sxe" d="M-15 6407V4905h2710v1502z"/><path id="f5sxm" d="M1464.87 5138.5l-.12 9.35-.62-.02.11-9.2-9.2-.25v-.62l9.35.24v.49z"/><path id="f5sxn" d="M1464 5186.34l-6.56 6.65-.44-.44 6.47-6.55-6.47-6.56.44-.45 6.56 6.66-.34.35z"/><path id="f5sxo" d="M1465 5105.34l-6.56 6.66-.44-.45 6.47-6.56-6.47-6.55.44-.45 6.56 6.66-.34.34z"/><path id="f5sxp" d="M813 5178h1v57h-1z"/><path id="f5sxq" d="M813.5 5175a2.5 2.5 0 1 1 0 5 2.5 2.5 0 0 1 0-5z"/><path id="f5sxr" d="M977 5249h1v57h-1z"/><path id="f5sxs" d="M977.5 5246a2.5 2.5 0 1 1 0 5 2.5 2.5 0 0 1 0-5z"/><clipPath id="f5sxf"><use fill="#fff" xlink:href="#f5sxa"/></clipPath><linearGradient id="f5sxg" x1="1465" x2="735" y1="5310" y2="5309" gradientUnits="userSpaceOnUse"><stop offset="0" stop-color="#dab318"/><stop offset=".17" stop-color="#e31f1f"/><stop offset=".35" stop-color="#dab318"/><stop offset=".57" stop-color="#e31f1f"/><stop offset=".76" stop-color="#dab318"/><stop offset="1" stop-color="#e31f1f"/></linearGradient><clipPath id="f5sxh"><use fill="#fff" xlink:href="#f5sxb"/></clipPath><linearGradient id="f5sxi" x1="1464.72" x2="733.72" y1="5269.99" y2="5269.99" gradientUnits="userSpaceOnUse"><stop offset="0" stop-color="#aada18"/><stop offset=".86" stop-color="#aada18"/><stop offset="1" stop-color="#e31f1f"/></linearGradient><clipPath id="f5sxj"><use fill="#fff" xlink:href="#f5sxc"/></clipPath><linearGradient id="f5sxk" x1="1465" x2="735" y1="5284.99" y2="5284.99" gradientUnits="userSpaceOnUse"><stop offset="0" stop-color="#da7318"/><stop offset=".46" stop-color="#da7318"/><stop offset="1" stop-color="#e31f1f"/></linearGradient><clipPath id="f5sxl"><use fill="#fff" xlink:href="#f5sxd"/></clipPath></defs><g><g transform="translate(16 -4903)"><use fill="#fff" xlink:href="#f5sxe"/></g><g transform="translate(16 -4903)"><use fill="#fff" fill-opacity="0" stroke="#cfcfcf" stroke-dasharray="4 3" stroke-miterlimit="50" stroke-width="2" clip-path="url(&quot;#f5sxf&quot;)" xlink:href="#f5sxa"/></g><g transform="translate(16 -4903)"><use fill="url(#f5sxg)" xlink:href="#f5sxb"/><use fill="#fff" fill-opacity="0" stroke="#cfcfcf" stroke-dasharray="8 4" stroke-miterlimit="50" stroke-width="4" clip-path="url(&quot;#f5sxh&quot;)" xlink:href="#f5sxb"/></g><g transform="translate(16 -4903)"><use fill="url(#f5sxi)" xlink:href="#f5sxc"/><use fill="#fff" fill-opacity="0" stroke="#cfcfcf" stroke-miterlimit="50" stroke-width="4" clip-path="url(&quot;#f5sxj&quot;)" xlink:href="#f5sxc"/></g><g transform="translate(16 -4903)"><use fill="url(#f5sxk)" xlink:href="#f5sxd"/><use fill="#fff" fill-opacity="0" stroke="#cfcfcf" stroke-dasharray="0 12" stroke-linecap="round" stroke-miterlimit="50" stroke-width="6" clip-path="url(&quot;#f5sxl&quot;)" xlink:href="#f5sxd"/></g><g transform="translate(16 -4903)"><use fill="#9cca39" xlink:href="#f5sxm"/><use fill="#fff" fill-opacity="0" stroke="#da7c18" stroke-linecap="round" stroke-linejoin="round" stroke-miterlimit="50" stroke-width="2" xlink:href="#f5sxm"/></g><g transform="translate(16 -4903)"><use fill="#9cca39" xlink:href="#f5sxn"/><use fill="#fff" fill-opacity="0" stroke="#da1818" stroke-linecap="round" stroke-linejoin="round" stroke-miterlimit="50" stroke-width="2" xlink:href="#f5sxn"/></g><g transform="translate(16 -4903)"><use fill="#9cca39" xlink:href="#f5sxo"/><use fill="#fff" fill-opacity="0" stroke="#aada18" stroke-linecap="round" stroke-linejoin="round" stroke-miterlimit="50" stroke-width="2" xlink:href="#f5sxo"/></g><g transform="translate(16 -4903)"><use fill="#cfcfcf" xlink:href="#f5sxp"/></g><g transform="translate(16 -4903)"><use fill="#f0441f" xlink:href="#f5sxq"/></g><g transform="translate(16 -4903)"><use fill="#cfcfcf" xlink:href="#f5sxr"/></g><g transform="translate(16 -4903)"><use fill="#f09a1f" xlink:href="#f5sxs"/></g></g></svg>