<svg xmlns="http://www.w3.org/2000/svg" xmlns:xlink="http://www.w3.org/1999/xlink" width="737" height="344" viewBox="0 0 737 344"><defs><path id="gyssa" d="M814 5257h-1v-21h1z"/><path id="gyssb" d="M735 5434s48.36-108 113-108c57.74 0 46.45-90.89 93.74-80.79 34.83 7.44 21.38 132.43 66.32 141.47 21.7 4.36 45.1-89.6 73.97-89.6 38.85 0 40.3 45.72 82.64 45.72 36.56 0 43.91-143.84 88.08-143.84 13.35 0 47.13 42.74 84.03 34.11 54.44-12.72 58.69-48.07 128.22-48.07"/><path id="gyssc" d="M735 5436s-65-332 730-332"/><path id="gyssd" d="M735 5436s524-3 730-302"/><path id="gyssl" d="M1464.87 5138.5l-.12 9.35-.62-.02.11-9.2-9.2-.25v-.62l9.35.24v.49z"/><path id="gyssm" d="M1464 5186.34l-6.56 6.65-.44-.44 6.47-6.55-6.47-6.56.44-.45 6.56 6.66-.34.35z"/><path id="gyssn" d="M1465 5105.34l-6.56 6.66-.44-.45 6.47-6.56-6.47-6.55.44-.45 6.56 6.66-.34.34z"/><path id="gysso" d="M813 5178h1v57h-1z"/><path id="gyssp" d="M813.5 5175a2.5 2.5 0 1 1 0 5 2.5 2.5 0 0 1 0-5z"/><path id="gyssq" d="M977 5249h1v57h-1z"/><path id="gyssr" d="M977.5 5246a2.5 2.5 0 1 1 0 5 2.5 2.5 0 0 1 0-5z"/><clipPath id="gysse"><use fill="#fff" xlink:href="#gyssa"/></clipPath><linearGradient id="gyssf" x1="1465" x2="735" y1="5310" y2="5309" gradientUnits="userSpaceOnUse"><stop offset="0" stop-color="#dab318"/><stop offset=".17" stop-color="#e31f1f"/><stop offset=".35" stop-color="#dab318"/><stop offset=".57" stop-color="#e31f1f"/><stop offset=".76" stop-color="#dab318"/><stop offset="1" stop-color="#e31f1f"/></linearGradient><clipPath id="gyssg"><use fill="#fff" xlink:href="#gyssb"/></clipPath><linearGradient id="gyssh" x1="1464.72" x2="733.72" y1="5269.99" y2="5269.99" gradientUnits="userSpaceOnUse"><stop offset="0" stop-color="#aada18"/><stop offset=".86" stop-color="#aada18"/><stop offset="1" stop-color="#e31f1f"/></linearGradient><clipPath id="gyssi"><use fill="#fff" xlink:href="#gyssc"/></clipPath><linearGradient id="gyssj" x1="1465" x2="735" y1="5284.99" y2="5284.99" gradientUnits="userSpaceOnUse"><stop offset="0" stop-color="#da7318"/><stop offset=".46" stop-color="#da7318"/><stop offset="1" stop-color="#e31f1f"/></linearGradient><clipPath id="gyssk"><use fill="#fff" xlink:href="#gyssd"/></clipPath></defs><g><g transform="translate(-730 -5096)"><use fill="#fff" fill-opacity="0" stroke="#cfcfcf" stroke-dasharray="4 3" stroke-miterlimit="50" stroke-width="2" clip-path="url(&quot;#gysse&quot;)" xlink:href="#gyssa"/></g><g transform="translate(-730 -5096)"><use fill="url(#gyssf)" xlink:href="#gyssb"/><use fill="#fff" fill-opacity="0" stroke="#cfcfcf" stroke-dasharray="8 4" stroke-miterlimit="50" stroke-width="4" clip-path="url(&quot;#gyssg&quot;)" xlink:href="#gyssb"/></g><g transform="translate(-730 -5096)"><use fill="url(#gyssh)" xlink:href="#gyssc"/><use fill="#fff" fill-opacity="0" stroke="#cfcfcf" stroke-miterlimit="50" stroke-width="4" clip-path="url(&quot;#gyssi&quot;)" xlink:href="#gyssc"/></g><g transform="translate(-730 -5096)"><use fill="url(#gyssj)" xlink:href="#gyssd"/><use fill="#fff" fill-opacity="0" stroke="#cfcfcf" stroke-dasharray="0 12" stroke-linecap="round" stroke-miterlimit="50" stroke-width="6" clip-path="url(&quot;#gyssk&quot;)" xlink:href="#gyssd"/></g><g transform="translate(-730 -5096)"><use fill="#9cca39" xlink:href="#gyssl"/><use fill="#fff" fill-opacity="0" stroke="#da7c18" stroke-linecap="round" stroke-linejoin="round" stroke-miterlimit="50" stroke-width="2" xlink:href="#gyssl"/></g><g transform="translate(-730 -5096)"><use fill="#9cca39" xlink:href="#gyssm"/><use fill="#fff" fill-opacity="0" stroke="#da1818" stroke-linecap="round" stroke-linejoin="round" stroke-miterlimit="50" stroke-width="2" xlink:href="#gyssm"/></g><g transform="translate(-730 -5096)"><use fill="#9cca39" xlink:href="#gyssn"/><use fill="#fff" fill-opacity="0" stroke="#aada18" stroke-linecap="round" stroke-linejoin="round" stroke-miterlimit="50" stroke-width="2" xlink:href="#gyssn"/></g><g transform="translate(-730 -5096)"><use fill="#cfcfcf" xlink:href="#gysso"/></g><g transform="translate(-730 -5096)"><use fill="#f0441f" xlink:href="#gyssp"/></g><g transform="translate(-730 -5096)"><use fill="#cfcfcf" xlink:href="#gyssq"/></g><g transform="translate(-730 -5096)"><use fill="#f09a1f" xlink:href="#gyssr"/></g></g></svg>