<svg xmlns="http://www.w3.org/2000/svg" xmlns:xlink="http://www.w3.org/1999/xlink" width="36" height="29"><defs><path id="a" d="M1487.5 10996a14.5 14.5 0 1 1 0 29 14.5 14.5 0 0 1 0-29z"/><path id="c" d="M1487.5 11004a6.5 6.5 0 1 1 0 13 6.5 6.5 0 0 1 0-13z"/><path id="d" d="M1489.55 11009.95l-9.21-9.52a1.4 1.4 0 0 0-2.04 0 1.52 1.52 0 0 0 0 2.1l6.76 6.98h-17.62c-.8 0-1.44.67-1.44 1.49s.64 1.48 1.44 1.48h17.62l-6.76 6.98a1.52 1.52 0 0 0 0 2.1 1.41 1.41 0 0 0 2.04 0l9.21-9.51c.57-.58.57-1.52 0-2.1z"/><clipPath id="b"><use fill="#fff" xlink:href="#a"/></clipPath></defs><g transform="translate(-1466 -10996)"><use fill="#fad13e" xlink:href="#a"/><use fill="#fff" fill-opacity="0" stroke="#fff" stroke-miterlimit="50" stroke-width="8" clip-path="url(&quot;#b&quot;)" xlink:href="#a"/></g><use fill="#fff" xlink:href="#c" transform="translate(-1466 -10996)"/><use fill="#31363e" xlink:href="#d" transform="translate(-1466 -10996)"/></svg>