<svg xmlns="http://www.w3.org/2000/svg" xmlns:xlink="http://www.w3.org/1999/xlink" width="37" height="30"><defs><path id="a" d="M1003.97 6716.16c.3-.05.6.15.65.45.05.3-.16.59-.47.64l-3.38.55 6.16 11.65c.05.09.07.19.06.28a6.87 6.87 0 0 1-6.9 6.8c-3.81 0-6.91-3.06-6.91-6.82 0-.1.02-.18.06-.26l6.03-11.4-6.8 1.12a3.94 3.94 0 0 1-3.41 3.98v19.75h6.83c.31 0 .56.24.56.55 0 .3-.25.55-.56.55h-14.78a.56.56 0 0 1-.56-.55c0-.3.25-.55.56-.55h6.83v-19.75a3.98 3.98 0 0 1-3.24-2.7l-6.98 1.15 6.03 11.42c.05.08.07.17.07.27 0 3.76-3.1 6.82-6.9 6.82-3.8 0-6.9-3.05-6.92-6.8 0-.1.02-.19.07-.28l5.89-11.14-2.93.48-.1.01c-.26 0-.5-.19-.55-.46a.55.55 0 0 1 .46-.64l11.68-1.92v-.1a3.95 3.95 0 0 1 3.42-3.89v-.82c0-.3.25-.56.56-.56.3 0 .56.25.56.56v.82a3.98 3.98 0 0 1 3.24 2.71zm-18.26 3.57v.15a2.86 2.86 0 0 0 2.82 2.2 2.84 2.84 0 0 0 2.83-2.82 2.84 2.84 0 0 0-2.86-2.82 2.84 2.84 0 0 0-2.84 3.13l.05.16zm8.62 10.53a5.77 5.77 0 0 0 5.76 5.16c3 0 5.47-2.27 5.76-5.16zm5.76-11.36l-5.43 10.25h10.85zm-28.94 14.94a5.77 5.77 0 0 0 5.76 5.16c3 0 5.48-2.27 5.76-5.16zm5.76-11.36l-5.42 10.25h10.85z"/></defs><use fill="#31363e" xlink:href="#a" opacity=".4" transform="translate(-970 -6714)"/></svg>