<svg xmlns="http://www.w3.org/2000/svg" xmlns:xlink="http://www.w3.org/1999/xlink" width="38" height="38"><defs><path id="a" d="M1156.14 6787.73v-37.46h37.72v37.46zm20.19-18.73l7.3-7.3a.94.94 0 1 0-1.32-1.33l-7.31 7.3-7.3-7.3a.94.94 0 1 0-1.33 1.32l7.3 7.31-7.3 7.3a.94.94 0 0 0 1.32 1.33l7.31-7.3 7.3 7.3a.94.94 0 0 0 1.33-1.32z"/><path id="b" d="M1176.33 6769l7.3-7.3a.94.94 0 1 0-1.32-1.33l-7.31 7.3-7.3-7.3a.94.94 0 1 0-1.33 1.32l7.3 7.31-7.3 7.3a.94.94 0 0 0 1.32 1.33l7.31-7.3 7.3 7.3a.94.94 0 0 0 1.33-1.32z"/><clipPath id="c"><use fill="#fff" xlink:href="#a"/></clipPath></defs><g transform="translate(-1156 -6750)"><use fill="#e52537" xlink:href="#b"/><use fill="#fff" fill-opacity="0" stroke="#fff" stroke-linecap="round" stroke-linejoin="round" stroke-miterlimit="50" stroke-width="20" clip-path="url(&quot;#c&quot;)" xlink:href="#b"/></g></svg>