<svg xmlns="http://www.w3.org/2000/svg" xmlns:xlink="http://www.w3.org/1999/xlink" width="42" height="36"><defs><path id="a" d="M783.32 6787.69v-35.38h41.36v35.38zm31.25-25.27a1.1 1.1 0 0 0-1.54 0l-13.05 12.88-5.01-4.95a1.1 1.1 0 0 0-1.54 0c-.43.42-.43 1.1 0 1.52l5.78 5.71a1.1 1.1 0 0 0 1.54 0l13.82-13.64c.43-.42.43-1.1 0-1.52z"/><path id="b" d="M814.57 6762.42a1.1 1.1 0 0 0-1.54 0l-13.05 12.88-5.01-4.95a1.1 1.1 0 0 0-1.54 0c-.43.42-.43 1.1 0 1.52l5.78 5.71a1.1 1.1 0 0 0 1.54 0l13.82-13.64c.43-.42.43-1.1 0-1.52z"/><clipPath id="c"><use fill="#fff" xlink:href="#a"/></clipPath></defs><g transform="translate(-783 -6752)"><use fill="#75c700" xlink:href="#b"/><use fill="#fff" fill-opacity="0" stroke="#fff" stroke-linecap="round" stroke-linejoin="round" stroke-miterlimit="50" stroke-width="20" clip-path="url(&quot;#c&quot;)" xlink:href="#b"/></g></svg>