<svg xmlns="http://www.w3.org/2000/svg" xmlns:xlink="http://www.w3.org/1999/xlink" width="273" height="76" viewBox="0 0 273 76"><defs><path id="hulfa" d="M1628.7 489h203.98a33 33 0 0 1 0 66H1628.7a33 33 0 0 1 0-66z"/><path id="hulfb" d="M1628.7 496h203.98a33 33 0 0 1 0 66H1628.7a33 33 0 0 1 0-66z"/><path id="hulfc" d="M1628.7 491h203.98a33 33 0 0 1 0 66H1628.7a33 33 0 0 1 0-66z"/><path id="hulfe" d="M1591 559v-74h279v74zm4.7-37a33 33 0 0 0 33 33h203.98a33 33 0 0 0 0-66H1628.7a33 33 0 0 0-33 33z"/><linearGradient id="hulfd" x1="1595.7" x2="1865.7" y1="524" y2="524" gradientUnits="userSpaceOnUse"><stop offset="0" stop-color="#e12a2c"/><stop offset=".21" stop-color="#e12a2c"/><stop offset=".5" stop-color="#fd8f25"/><stop offset=".74" stop-color="#e52f31"/><stop offset="1" stop-color="#e52f31"/></linearGradient><linearGradient id="hulfh" x1="1595.7" x2="1865.7" y1="522" y2="522" gradientUnits="userSpaceOnUse"><stop offset="0" stop-color="#b52327"/><stop offset=".5" stop-color="#f0441f"/><stop offset="1" stop-color="#b62a30"/></linearGradient><filter id="hulff" width="200%" height="200%" x="-50%" y="-50%"><feGaussianBlur in="SourceGraphic" result="FeGaussianBlur1082Out" stdDeviation="2 2"/></filter><mask id="hulfg"><use fill="#fff" xlink:href="#hulfa"/></mask></defs><g><g transform="translate(-1594 -487)"><use fill="#c92527" xlink:href="#hulfb"/></g><g transform="translate(-1594 -487)"><use fill="#fd8f25" xlink:href="#hulfc"/><use fill="url(#hulfd)" xlink:href="#hulfc"/></g><g transform="translate(-1594 -487)"><use fill="#fd8f25" fill-opacity=".48" stroke="#fd8f25" stroke-opacity=".48" stroke-width="0" filter="url(#hulff)" mask="url(&quot;#hulfg&quot;)" xlink:href="#hulfe"/><use fill="#df2729" xlink:href="#hulfa"/><use fill="url(#hulfh)" xlink:href="#hulfa"/><use fill="#fd8f25" fill-opacity=".48" stroke="#fd8f25" stroke-opacity=".48" stroke-width="0" filter="url(#hulff)" mask="url(&quot;#hulfg&quot;)" xlink:href="#hulfe"/></g></g></svg>